<svg width="110" height="41" viewBox="0 0 110 41" fill="none" xmlns="http://www.w3.org/2000/svg">
<g clip-path="url(#clip0_56_20315)">
<path fill-rule="evenodd" clip-rule="evenodd" d="M82.7264 10.5619C77.0132 11.2051 73.7514 15.4307 74.4558 21.2767C75.5543 30.3947 89.36 31.4695 92.2738 22.6638C94.4934 15.956 89.6252 9.78524 82.7264 10.5619ZM97.9374 10.561C94.8815 10.9156 93.0093 12.8295 93.1297 15.4759C93.2361 17.8178 94.4524 18.9473 98.5043 20.4673C102.127 21.8263 102.624 22.2528 102.622 24.0005C102.617 28.6457 95.2418 28.854 93.693 24.2527C93.3913 23.3564 92.9545 23.0019 92.8183 23.5428C92.706 23.9889 92.7706 24.485 93.0592 25.3922C93.1423 25.6533 93.2792 26.1506 93.3634 26.4974C93.6631 27.7312 93.9012 27.9516 95.3553 28.3413C100.001 29.5862 104.055 27.3367 104.06 23.5124C104.063 20.547 102.901 19.3407 98.6381 17.8852C95.3129 16.7498 94.6904 16.1613 94.7375 14.1968C94.8266 10.4717 101.213 10.711 102.624 14.4923C102.8 14.9631 102.868 15.0695 103.076 15.1976C103.523 15.4741 103.609 15.0424 103.382 13.6583C103.314 13.2431 103.212 12.5516 103.154 12.1216C102.998 10.9431 102.982 10.9153 102.583 11.1218C102.234 11.3026 101.827 11.2715 101.198 11.0159C100.114 10.5759 99.0676 10.4299 97.9374 10.561ZM38.8399 10.6385C28.1183 12.3438 28.5929 28.4344 39.3726 28.7038C41.7189 28.7624 43.5098 28.3062 45.4125 27.1654C45.8551 26.8999 46.3984 26.6278 46.8348 26.4527C47.541 26.1694 47.541 26.1694 47.5708 23.5213C47.6093 20.0913 47.595 20.1606 48.3365 19.8014C49.5458 19.2156 48.5608 18.9287 46.0593 19.1381C45.5018 19.1847 45.2821 19.1801 44.6885 19.1092C43.755 18.9976 43.4735 19.0601 43.3043 19.4167C43.1699 19.7 43.1556 19.6933 44.4118 19.9389C45.3814 20.1285 45.3613 20.0818 45.4143 22.2762C45.4794 24.976 45.3983 25.3907 44.6533 26.1641C42.7766 28.1126 39.2795 28.3198 36.7975 26.6296C31.9536 23.331 32.218 14.0699 37.2176 11.9183C40.4917 10.5093 45.4159 12.3993 46.8881 15.6301C47.0764 16.0431 47.156 16.1065 47.4872 16.1065C47.7653 16.1065 47.7839 15.941 47.6207 14.9211C47.5673 14.5882 47.4984 14.0207 47.4674 13.66C47.3122 11.8563 47.1001 11.4055 46.6488 11.9198C46.4334 12.1654 46.2342 12.1338 45.4391 11.7278C43.5543 10.7654 40.8491 10.3189 38.8399 10.6385ZM15.6118 10.7415C15.5636 10.7897 13.9532 12.794 12.0331 15.1954C3.30529 26.1111 1.86978 27.7549 0.732279 28.1362C0.26615 28.2924 0.053994 28.4929 0.0512701 28.7798C0.0493029 28.9909 4.97183 28.8972 5.02504 28.6851C5.0434 28.612 5.09218 28.5655 5.15049 28.5655C5.50877 28.5655 5.06322 28.3019 4.38923 28.1151C3.9522 27.994 3.97122 28.0101 3.86005 27.6675C3.67841 27.1078 4.09344 26.3679 5.61051 24.5474C5.95357 24.1356 6.45051 23.5377 6.71483 23.2187C7.64512 22.0958 7.67382 22.0888 11.1754 22.129C14.5624 22.1679 14.2244 22.076 14.2249 22.9582C14.2251 23.365 14.259 23.9816 14.3001 24.3284C14.5792 26.6815 14.1662 27.9621 13.0637 28.162C12.5422 28.2566 12.3582 28.4166 12.3582 28.7752C12.3582 28.9482 18.4297 28.8901 18.454 28.7168C18.4638 28.6474 18.4978 28.5743 18.5297 28.5543C18.7099 28.4411 18.3525 28.2468 17.6127 28.0556C16.6945 27.8182 16.5943 27.4517 16.5728 24.2527C16.5656 23.1708 16.5339 22.0131 16.5024 21.6802C16.4234 20.8452 16.2935 15.2584 16.3025 13.08C16.3121 10.725 16.1562 10.1971 15.6118 10.7415ZM31.1223 10.7352C30.8477 10.816 27.2837 10.8367 26.9609 10.7594C26.7105 10.6993 26.5366 10.7616 26.3861 10.9651C26.1785 11.246 26.6073 11.5079 27.4914 11.6401C28.5287 11.7952 28.8756 12.2487 29.1364 13.7908C29.2451 14.4339 29.3101 24.5806 29.2055 24.5806C29.0693 24.5806 28.8441 24.41 28.6958 24.1945C28.5689 24.0101 24.4576 19.3169 22.8699 17.544C20.7847 15.2157 18.5725 12.7065 18.2671 12.3233C17.7703 11.7001 17.5228 11.4322 17.2812 11.2561C16.9284 10.999 16.9407 10.9513 16.958 12.5125C16.9776 14.2756 16.8858 14.059 18.2353 15.5264C18.6293 15.9548 28.5041 27.2382 29.2264 28.0854C29.6187 28.5455 30.2207 28.7395 30.2857 28.4268C30.4622 27.5774 30.4943 25.5267 30.4185 19.9417C30.3155 12.3504 30.3573 11.9542 31.3107 11.4911C31.9639 11.1738 32.0986 11.0058 31.8338 10.8387C31.5721 10.6735 31.4116 10.6501 31.1223 10.7352ZM48.3289 10.745C48.1661 10.8252 47.9704 11.0718 47.97 11.1971C47.9697 11.2779 48.2199 11.3531 48.7012 11.417C49.5181 11.5255 49.899 11.7633 50.1135 12.2986C50.2289 12.5866 50.3028 26.6304 50.191 27.0452C50.111 27.3424 49.8843 27.5323 49.428 27.6843C48.8912 27.863 48.4727 28.2778 48.6498 28.4554C48.7258 28.5315 49.702 28.52 50.6366 28.4318C52.0107 28.3023 53.5764 28.3146 55.2081 28.4677C59.1211 28.8348 60.7878 28.1709 61.5371 25.9467C61.9703 24.6606 61.6223 24.4826 60.6301 25.4829C59.4421 26.6807 58.3229 27.0957 55.8566 27.253C53.0863 27.4298 52.6097 27.2566 52.4571 26.0182C52.3639 25.2621 52.4482 20.2018 52.5545 20.1706C52.9808 20.0451 55.02 19.9642 55.9129 20.0374C57.6208 20.1775 58.136 20.49 58.2215 21.4374C58.2531 21.7878 58.3222 21.9132 58.5806 22.0887C58.9502 22.3399 59.0507 22.0899 59.0187 20.9993C58.9847 19.842 58.9907 18.898 59.0374 18.0484C59.0966 16.9714 59.0197 16.7788 58.6144 16.9884C58.4353 17.081 58.351 17.2493 58.2398 17.7363C58.0383 18.6191 57.6708 18.7415 54.9559 18.8294C53.0503 18.8912 52.6552 18.8503 52.5085 18.5763C52.4248 18.4199 52.4178 13.3494 52.5003 12.6764C52.5937 11.915 52.483 11.9446 55.2333 11.9459C58.6842 11.9476 59.1503 12.1266 59.2951 13.5063C59.3805 14.3195 59.4122 14.3843 59.704 14.34C60.0838 14.2824 60.1116 14.1977 60.1761 12.9034C60.2009 12.4041 60.2577 11.8139 60.3022 11.5919C60.4514 10.8479 60.3353 10.6844 59.6874 10.7269C59.4709 10.7411 58.715 10.7759 58.0076 10.8043C57.3001 10.8327 56.5738 10.8792 56.3935 10.9076C55.6681 11.0222 51.3469 10.907 49.8109 10.7321C48.9592 10.6352 48.5446 10.6388 48.3289 10.745ZM66.1791 10.8346C65.0761 10.9665 64.6733 10.9779 64.1867 10.8913C62.3523 10.5646 60.4472 11.1305 62.1402 11.4991C63.0632 11.7001 63.4801 11.9739 63.6921 12.5184C63.8004 12.7965 63.8635 25.5295 63.7605 26.3124C63.6598 27.0775 63.4548 27.3625 62.7743 27.6832C62.2771 27.9176 62.111 28.0609 62.064 28.2959C62.0117 28.5578 62.3129 28.5737 64.189 28.4088C65.5047 28.2931 66.1713 28.2992 67.768 28.4416C72.0211 28.8208 73.7957 28.2823 74.7236 26.3311C75.007 25.7352 75.1015 24.8166 74.8703 24.9053C74.829 24.9211 74.7425 24.9474 74.678 24.9636C74.6105 24.9805 74.4837 25.109 74.3791 25.2666C73.8115 26.1214 72.9005 26.6378 71.4162 26.946C68.7102 27.5079 66.5041 27.4802 66.1104 26.8793C65.8171 26.4316 65.7193 13.7456 66.0015 12.7535C66.2035 12.0434 66.4506 11.7967 67.1627 11.5944C67.5949 11.4715 67.8931 11.2219 67.8939 10.982C67.8945 10.812 67.0065 10.7356 66.1791 10.8346ZM81.7179 11.5729C75.8589 12.2517 74.4864 21.8405 79.6373 26.109C84.7411 30.3384 91.3112 26.434 90.754 19.5026C90.3383 14.3316 86.556 11.0123 81.7179 11.5729ZM13.8214 14.5518C13.7522 14.5778 13.679 14.6287 13.6587 14.665C13.5994 14.771 10.2726 18.8096 9.81979 19.3253C9.25021 19.9739 8.9064 20.5453 9.08562 20.5453C9.11674 20.5453 9.38343 20.5811 9.67831 20.6249C10.5084 20.7482 13.4682 20.7064 13.8966 20.5653C14.2554 20.4471 14.2722 20.258 14.176 17.4179C14.0887 14.8395 14.0428 14.4687 13.8214 14.5518Z" fill="#043C2C"/>
<path fill-rule="evenodd" clip-rule="evenodd" d="M92.1603 0.591026C92.1046 0.658163 92.1051 0.672034 92.1628 0.674405C92.2008 0.675969 92.3095 0.840559 92.4044 1.0401C93.2684 2.85831 96.2837 4.39153 100.807 5.31274C105.326 6.23299 107.047 7.08237 108.291 9.0051C109.122 10.2906 109.207 10.3238 108.841 9.22139C107.813 6.12 105.883 4.94084 99.7982 3.69751C97.0082 3.12742 95.8918 2.80757 94.6893 2.2336C93.8572 1.83652 92.3365 0.806915 92.2548 0.585275C92.2309 0.520408 92.2183 0.521164 92.1603 0.591026ZM91.4712 2.76419C91.3902 2.82543 91.3877 2.83763 91.4558 2.83894C91.5046 2.8399 91.5994 2.96666 91.6928 3.15582C92.2062 4.19562 94.0621 5.59975 95.8637 6.31148C97.0201 6.76823 97.907 7.00934 100.263 7.50744C104.973 8.50331 106.547 9.33282 107.802 11.4806C108.008 11.8344 108.276 12.1722 108.35 12.1722C108.451 12.1722 108.079 11.0758 107.769 10.4572C106.533 7.99329 104.482 6.89796 99.1676 5.86502C95.73 5.19673 94.7757 4.90159 93.3939 4.079C92.6478 3.63481 91.7146 2.95556 91.6225 2.78946C91.5736 2.70149 91.5576 2.69882 91.4712 2.76419ZM1.29462 29.5577C1.23778 29.6145 1.25689 29.6622 1.34925 29.6942C1.39778 29.711 1.54698 29.8124 1.6807 29.9196C2.69921 30.7355 9.33503 33.7808 13.236 35.2225C20.4866 37.9021 31.3068 40.0005 39.5207 40.3198C40.2975 40.35 41.2103 40.4069 41.5492 40.4462C42.2326 40.5255 51.1321 40.3795 52.2824 40.2701C52.5876 40.2411 53.3026 40.1939 53.8713 40.1654C54.44 40.1369 55.1664 40.0803 55.4854 40.0396C55.8045 39.999 56.7238 39.8982 57.5283 39.8156C64.032 39.1481 72.1345 37.4565 78.3102 35.4768C84.8292 33.387 93.1623 31.6164 98.6128 31.163C99.5993 31.081 103.975 30.6348 103.996 30.6141C104.135 30.4749 97.953 30.3741 97.0743 30.5013C96.7692 30.5455 95.9747 30.6054 95.3089 30.6346C90.4516 30.8473 85.7272 31.6218 78.3754 33.411C69.7487 35.5103 61.6537 36.9418 56.2925 37.3159C56.0567 37.3324 54.7061 37.4366 53.2912 37.5474C50.5216 37.7645 49.4354 37.8104 44.918 37.9013C41.1344 37.9775 39.7994 37.9406 35.5863 37.6435C23.7428 36.8084 14.8128 34.9086 5.2468 31.1891C3.35334 30.4528 1.49129 29.6762 1.43198 29.5979C1.36968 29.5158 1.34406 29.5082 1.29462 29.5577Z" fill="#741414"/>
</g>
<defs>
<clipPath id="clip0_56_20315">
<rect width="109.054" height="40" fill="white" transform="translate(0 0.52002)"/>
</clipPath>
</defs>
</svg>
