<svg width="851" height="639" viewBox="0 0 851 639" fill="none" xmlns="http://www.w3.org/2000/svg">
<path d="M107.014 638H2.98777L1 0M107.014 638H213.029M107.014 638V531.981M213.029 638H319.043M213.029 638V531.981M319.043 638H425.058M319.043 638V531.981M425.058 638H531.072M425.058 638V531.981M531.072 638H637.087M531.072 638V531.981M637.087 638H743.101M637.087 638V531.981M743.101 638H849.115V531.981M743.101 638V531.981M2.98777 531.981H107.014M107.014 531.981H213.029M107.014 531.981V425.961M213.029 531.981H319.043M213.029 531.981V425.961M319.043 531.981H425.058M319.043 531.981V425.961M425.058 531.981H531.072M425.058 531.981V425.961M531.072 531.981H637.087M531.072 531.981V425.961M637.087 531.981H743.101M637.087 531.981V425.961M743.101 531.981H849.115M743.101 531.981V425.961M849.115 531.981V425.961M2.98777 425.961H107.014M107.014 425.961H213.029M107.014 425.961V319.942M213.029 425.961H319.043M213.029 425.961V319.942M319.043 425.961H425.058M319.043 425.961V319.942M425.058 425.961H531.072M425.058 425.961V319.942M531.072 425.961H637.087M531.072 425.961V319.942M637.087 425.961H743.101M637.087 425.961V319.942M743.101 425.961H849.115M743.101 425.961V319.942M849.115 425.961V319.942M2.98777 319.942H107.014M107.014 319.942H213.029M107.014 319.942V213.923M213.029 319.942H319.043M213.029 319.942V213.923M319.043 319.942H425.058M319.043 319.942V213.923M425.058 319.942H531.072M425.058 319.942V213.923M531.072 319.942H637.087M531.072 319.942V213.923M637.087 319.942H743.101M637.087 319.942V213.923M743.101 319.942H849.115M743.101 319.942V213.923M849.115 319.942V213.923M2.98777 213.923H107.014M107.014 213.923H213.029M107.014 213.923V107.904M213.029 213.923H319.043M213.029 213.923V107.904M319.043 213.923H425.058M319.043 213.923V107.904M425.058 213.923H531.072M425.058 213.923V107.904M531.072 213.923H637.087M531.072 213.923V107.904M637.087 213.923H743.101M637.087 213.923V107.904M743.101 213.923H849.115M743.101 213.923V107.904M849.115 213.923V107.904M2.98777 107.904H107.014M107.014 107.904H213.029M107.014 107.904V3.87267M213.029 107.904H319.043M213.029 107.904V3.87267M319.043 107.904H425.058M319.043 107.904V3.87267M425.058 107.904H531.072M425.058 107.904V3.87267M531.072 107.904H637.087M531.072 107.904V3.87267M637.087 107.904H743.101M637.087 107.904V3.87267M743.101 107.904H849.115M743.101 107.904V3.87267M849.115 107.904V0M1 1.88495L851 1.88479" stroke="white" stroke-opacity="0.1" stroke-width="1.8847"/>
</svg>
