<svg width="110" height="40" viewBox="0 0 110 40" fill="none" xmlns="http://www.w3.org/2000/svg">
<g clip-path="url(#clip0_56_19965)">
<path fill-rule="evenodd" clip-rule="evenodd" d="M82.7264 10.0418C77.0132 10.685 73.7514 14.9107 74.4558 20.7566C75.5543 29.8746 89.36 30.9494 92.2738 22.1437C94.4934 15.436 89.6252 9.26516 82.7264 10.0418ZM97.9374 10.0409C94.8815 10.3956 93.0093 12.3094 93.1297 14.9559C93.2361 17.2977 94.4524 18.4272 98.5043 19.9472C102.127 21.3062 102.624 21.7327 102.622 23.4804C102.617 28.1256 95.2418 28.3339 93.693 23.7326C93.3913 22.8364 92.9545 22.4819 92.8183 23.0227C92.706 23.4688 92.7706 23.9649 93.0592 24.8721C93.1423 25.1332 93.2792 25.6305 93.3634 25.9773C93.6631 27.2111 93.9012 27.4316 95.3553 27.8212C100.001 29.0661 104.055 26.8166 104.06 22.9923C104.063 20.0269 102.901 18.8206 98.6381 17.3651C95.3129 16.2298 94.6904 15.6412 94.7375 13.6768C94.8266 9.95167 101.213 10.1909 102.624 13.9722C102.8 14.443 102.868 14.5494 103.076 14.6775C103.523 14.954 103.609 14.5223 103.382 13.1382C103.314 12.723 103.212 12.0315 103.154 11.6015C102.998 10.423 102.982 10.3952 102.583 10.6018C102.234 10.7825 101.827 10.7514 101.198 10.4958C100.114 10.0558 99.0676 9.90985 97.9374 10.0409ZM38.8399 10.1184C28.1183 11.8237 28.5929 27.9143 39.3726 28.1837C41.7189 28.2424 43.5098 27.7862 45.4125 26.6453C45.8551 26.3799 46.3984 26.1077 46.8348 25.9326C47.541 25.6493 47.541 25.6493 47.5708 23.0012C47.6093 19.5712 47.595 19.6405 48.3365 19.2813C49.5458 18.6955 48.5608 18.4086 46.0593 18.618C45.5018 18.6647 45.2821 18.66 44.6885 18.5891C43.755 18.4776 43.4735 18.5401 43.3043 18.8966C43.1699 19.18 43.1556 19.1732 44.4118 19.4189C45.3814 19.6085 45.3613 19.5618 45.4143 21.7562C45.4794 24.4559 45.3983 24.8706 44.6533 25.644C42.7766 27.5925 39.2795 27.7997 36.7975 26.1095C31.9536 22.8109 32.218 13.5499 37.2176 11.3982C40.4917 9.98925 45.4159 11.8792 46.8881 15.11C47.0764 15.5231 47.156 15.5864 47.4872 15.5864C47.7653 15.5864 47.7839 15.4209 47.6207 14.401C47.5673 14.0681 47.4984 13.5006 47.4674 13.14C47.3122 11.3362 47.1001 10.8854 46.6488 11.3997C46.4334 11.6453 46.2342 11.6137 45.4391 11.2078C43.5543 10.2453 40.8491 9.79878 38.8399 10.1184ZM15.6118 10.2214C15.5636 10.2696 13.9532 12.2739 12.0331 14.6753C3.30529 25.5911 1.86978 27.2348 0.732279 27.6161C0.26615 27.7723 0.053994 27.9729 0.0512701 28.2598C0.0493029 28.4709 4.97183 28.3771 5.02504 28.165C5.0434 28.0919 5.09218 28.0454 5.15049 28.0454C5.50877 28.0454 5.06322 27.7818 4.38923 27.595C3.9522 27.4739 3.97122 27.49 3.86005 27.1474C3.67841 26.5877 4.09344 25.8479 5.61051 24.0273C5.95357 23.6155 6.45051 23.0176 6.71483 22.6986C7.64512 21.5757 7.67382 21.5687 11.1754 21.6089C14.5624 21.6478 14.2244 21.5559 14.2249 22.4381C14.2251 22.8449 14.259 23.4615 14.3001 23.8083C14.5792 26.1614 14.1662 27.4421 13.0637 27.642C12.5422 27.7365 12.3582 27.8965 12.3582 28.2551C12.3582 28.4281 18.4297 28.37 18.454 28.1967C18.4638 28.1274 18.4978 28.0542 18.5297 28.0342C18.7099 27.921 18.3525 27.7267 17.6127 27.5355C16.6945 27.2981 16.5943 26.9316 16.5728 23.7326C16.5656 22.6507 16.5339 21.4931 16.5024 21.1601C16.4234 20.3251 16.2935 14.7383 16.3025 12.5599C16.3121 10.2049 16.1562 9.67701 15.6118 10.2214ZM31.1223 10.2151C30.8477 10.2959 27.2837 10.3166 26.9609 10.2393C26.7105 10.1793 26.5366 10.2415 26.3861 10.445C26.1785 10.7259 26.6073 10.9878 27.4914 11.12C28.5287 11.2751 28.8756 11.7287 29.1364 13.2708C29.2451 13.9138 29.3101 24.0605 29.2055 24.0605C29.0693 24.0605 28.8441 23.8899 28.6958 23.6744C28.5689 23.49 24.4576 18.7968 22.8699 17.0239C20.7847 14.6956 18.5725 12.1864 18.2671 11.8033C17.7703 11.1801 17.5228 10.9121 17.2812 10.736C16.9284 10.4789 16.9407 10.4312 16.958 11.9924C16.9776 13.7556 16.8858 13.5389 18.2353 15.0063C18.6293 15.4347 28.5041 26.7181 29.2264 27.5653C29.6187 28.0254 30.2207 28.2194 30.2857 27.9067C30.4622 27.0573 30.4943 25.0066 30.4185 19.4216C30.3155 11.8303 30.3573 11.4341 31.3107 10.971C31.9639 10.6538 32.0986 10.4857 31.8338 10.3186C31.5721 10.1534 31.4116 10.13 31.1223 10.2151ZM48.3289 10.225C48.1661 10.3052 47.9704 10.5517 47.97 10.677C47.9697 10.7578 48.2199 10.833 48.7012 10.8969C49.5181 11.0054 49.899 11.2432 50.1135 11.7785C50.2289 12.0665 50.3028 26.1103 50.191 26.5251C50.111 26.8223 49.8843 27.0122 49.428 27.1642C48.8912 27.3429 48.4727 27.7577 48.6498 27.9353C48.7258 28.0114 49.702 27.9999 50.6366 27.9118C52.0107 27.7822 53.5764 27.7945 55.2081 27.9476C59.1211 28.3147 60.7878 27.6508 61.5371 25.4266C61.9703 24.1405 61.6223 23.9626 60.6301 24.9629C59.4421 26.1606 58.3229 26.5756 55.8566 26.733C53.0863 26.9097 52.6097 26.7365 52.4571 25.4981C52.3639 24.742 52.4482 19.6818 52.5545 19.6505C52.9808 19.525 55.02 19.4441 55.9129 19.5174C57.6208 19.6574 58.136 19.9699 58.2215 20.9174C58.2531 21.2677 58.3222 21.3931 58.5806 21.5687C58.9502 21.8198 59.0507 21.5698 59.0187 20.4792C58.9847 19.322 58.9907 18.3779 59.0374 17.5284C59.0966 16.4513 59.0197 16.2587 58.6144 16.4683C58.4353 16.5609 58.351 16.7292 58.2398 17.2162C58.0383 18.0991 57.6708 18.2214 54.9559 18.3093C53.0503 18.3711 52.6552 18.3302 52.5085 18.0562C52.4248 17.8999 52.4178 12.8293 52.5003 12.1564C52.5937 11.3949 52.483 11.4245 55.2333 11.4258C58.6842 11.4275 59.1503 11.6065 59.2951 12.9862C59.3805 13.7994 59.4122 13.8642 59.704 13.8199C60.0838 13.7623 60.1116 13.6776 60.1761 12.3833C60.2009 11.884 60.2577 11.2938 60.3022 11.0719C60.4514 10.3278 60.3353 10.1643 59.6874 10.2068C59.4709 10.221 58.715 10.2558 58.0076 10.2842C57.3001 10.3126 56.5738 10.3591 56.3935 10.3875C55.6681 10.5021 51.3469 10.3869 49.8109 10.212C48.9592 10.1151 48.5446 10.1187 48.3289 10.225ZM66.1791 10.3145C65.0761 10.4464 64.6733 10.4578 64.1867 10.3712C62.3523 10.0445 60.4472 10.6104 62.1402 10.9791C63.0632 11.1801 63.4801 11.4539 63.6921 11.9983C63.8004 12.2764 63.8635 25.0094 63.7605 25.7923C63.6598 26.5574 63.4548 26.8425 62.7743 27.1632C62.2771 27.3975 62.111 27.5408 62.064 27.7758C62.0117 28.0377 62.3129 28.0537 64.189 27.8887C65.5047 27.7731 66.1713 27.7792 67.768 27.9215C72.0211 28.3007 73.7957 27.7622 74.7236 25.811C75.007 25.2151 75.1015 24.2965 74.8703 24.3852C74.829 24.401 74.7425 24.4273 74.678 24.4435C74.6105 24.4604 74.4837 24.5889 74.3791 24.7465C73.8115 25.6014 72.9005 26.1177 71.4162 26.426C68.7102 26.9878 66.5041 26.9601 66.1104 26.3592C65.8171 25.9115 65.7193 13.2256 66.0015 12.2334C66.2035 11.5233 66.4506 11.2767 67.1627 11.0743C67.5949 10.9515 67.8931 10.7018 67.8939 10.4619C67.8945 10.2919 67.0065 10.2155 66.1791 10.3145ZM81.7179 11.0528C75.8589 11.7316 74.4864 21.3204 79.6373 25.5889C84.7411 29.8183 91.3112 25.9139 90.754 18.9825C90.3383 13.8115 86.556 10.4922 81.7179 11.0528ZM13.8214 14.0317C13.7522 14.0577 13.679 14.1086 13.6587 14.1449C13.5994 14.2509 10.2726 18.2895 9.81979 18.8052C9.25021 19.4539 8.9064 20.0252 9.08562 20.0252C9.11674 20.0252 9.38343 20.061 9.67831 20.1049C10.5084 20.2281 13.4682 20.1863 13.8966 20.0452C14.2554 19.9271 14.2722 19.7379 14.176 16.8978C14.0887 14.3194 14.0428 13.9486 13.8214 14.0317Z" fill="white"/>
<path fill-rule="evenodd" clip-rule="evenodd" d="M92.1603 0.0707619C92.1047 0.137899 92.1051 0.151771 92.1628 0.154142C92.2008 0.155705 92.3095 0.320295 92.4044 0.519841C93.2684 2.33805 96.2837 3.87127 100.807 4.79248C105.326 5.71273 107.047 6.56211 108.291 8.48483C109.122 9.77038 109.207 9.80352 108.841 8.70113C107.813 5.59974 105.883 4.42057 99.7982 3.17724C97.0082 2.60716 95.8918 2.28731 94.6893 1.71333C93.8572 1.31626 92.3365 0.286651 92.2548 0.0650116C92.2309 0.000144033 92.2183 0.000900656 92.1603 0.0707619ZM91.4712 2.24393C91.3902 2.30516 91.3877 2.31737 91.4558 2.31868C91.5046 2.31964 91.5994 2.4464 91.6928 2.63555C92.2062 3.67535 94.0621 5.07949 95.8637 5.79122C97.0201 6.24796 97.907 6.48907 100.263 6.98718C104.973 7.98304 106.547 8.81255 107.802 10.9603C108.008 11.3141 108.276 11.6519 108.35 11.6519C108.451 11.6519 108.079 10.5555 107.769 9.93694C106.533 7.47303 104.482 6.3777 99.1677 5.34476C95.73 4.67646 94.7757 4.38133 93.3939 3.55873C92.6478 3.11455 91.7146 2.4353 91.6225 2.2692C91.5736 2.18123 91.5576 2.17856 91.4712 2.24393ZM1.29462 29.0374C1.23778 29.0942 1.25689 29.1419 1.34925 29.1739C1.39778 29.1907 1.54698 29.2921 1.6807 29.3993C2.69921 30.2152 9.33503 33.2605 13.236 34.7023C20.4866 37.3819 31.3068 39.4802 39.5207 39.7995C40.2975 39.8297 41.2103 39.8866 41.5492 39.9259C42.2326 40.0053 51.1321 39.8592 52.2824 39.7498C52.5876 39.7208 53.3026 39.6737 53.8713 39.6451C54.44 39.6166 55.1664 39.56 55.4854 39.5194C55.8045 39.4787 56.7238 39.3779 57.5283 39.2953C64.032 38.6279 72.1345 36.9363 78.3102 34.9565C84.8292 32.8667 93.1623 31.0961 98.6128 30.6428C99.5993 30.5607 103.975 30.1145 103.996 30.0939C104.135 29.9546 97.953 29.8539 97.0743 29.981C96.7692 30.0252 95.9747 30.0852 95.3089 30.1143C90.4516 30.327 85.7272 31.1016 78.3754 32.8907C69.7487 34.9901 61.6537 36.4215 56.2925 36.7957C56.0567 36.8121 54.7061 36.9163 53.2912 37.0272C50.5216 37.2443 49.4354 37.2902 44.918 37.3811C41.1344 37.4572 39.7994 37.4203 35.5863 37.1232C23.7428 36.2881 14.8128 34.3883 5.2468 30.6688C3.35334 29.9325 1.49129 29.1559 1.43198 29.0776C1.36968 28.9955 1.34406 28.988 1.29462 29.0374Z" fill="#741414"/>
</g>
<defs>
<clipPath id="clip0_56_19965">
<rect width="109.054" height="40" fill="white"/>
</clipPath>
</defs>
</svg>
