<svg width="98" height="98" viewBox="0 0 98 98" fill="none" xmlns="http://www.w3.org/2000/svg">
<circle cx="49" cy="49" r="31.36" stroke="white" stroke-width="1.28"/>
<path d="M56.5 42.91L55.09 41.5L43.5 53.09V46.5H41.5V56.5H51.5V54.5H44.91L56.5 42.91Z" fill="white"/>
<path d="M44.2595 91.0359C44.7282 91.0869 45.1728 91.2112 45.5932 91.4087C46.0048 91.6132 46.3318 91.8923 46.5742 92.2462C46.8157 92.6079 46.9117 93.0497 46.8623 93.5714L46.0996 93.4884C46.1022 93.4648 46.1016 93.3968 46.0979 93.2846C46.0942 93.1724 46.0688 93.0378 46.0218 92.881C45.966 92.7311 45.8709 92.573 45.7364 92.4066C45.6012 92.2482 45.4037 92.1069 45.144 91.9828C44.8843 91.8587 44.5439 91.7737 44.1229 91.7279C43.6541 91.6769 43.2892 91.7051 43.0282 91.8125C42.7662 91.9277 42.582 92.0674 42.4754 92.2315C42.3601 92.4027 42.2968 92.5396 42.2854 92.6422C42.247 92.9175 42.2982 93.1467 42.4388 93.3298C42.5794 93.5128 42.7791 93.6703 43.0379 93.8023C43.2888 93.9334 43.5688 94.0557 43.8778 94.1692C44.1869 94.2827 44.4956 94.4001 44.8038 94.5215C45.1032 94.6499 45.3761 94.7995 45.6227 94.97C45.8683 95.1485 46.0535 95.3643 46.1784 95.6175C46.3032 95.8707 46.3373 96.1819 46.2805 96.5511C46.2254 96.9046 46.0688 97.195 45.8106 97.4225C45.5523 97.65 45.2251 97.81 44.829 97.9027C44.424 98.0024 43.9753 98.0255 43.4827 97.9719C43.0299 97.9226 42.6219 97.7944 42.2588 97.5872C41.8869 97.3869 41.6036 97.1125 41.4089 96.7639C41.2142 96.4152 41.1513 96.0011 41.2203 95.5214L41.9711 95.6031C41.9301 95.9021 41.9627 96.1532 42.0689 96.3565C42.1663 96.5667 42.3087 96.734 42.496 96.8582C42.6833 96.9824 42.882 97.0759 43.0922 97.1387C43.2935 97.2085 43.4736 97.2521 43.6325 97.2694C44.133 97.3238 44.557 97.2701 44.9045 97.1083C45.252 96.9464 45.4471 96.7081 45.4899 96.3932C45.5203 96.117 45.4652 95.8874 45.3246 95.7044C45.184 95.5213 44.9883 95.3642 44.7374 95.2331C44.4777 95.109 44.1929 94.9942 43.8829 94.8886C43.573 94.783 43.2683 94.666 42.9689 94.5375C42.6607 94.4161 42.3833 94.2702 42.1368 94.0996C41.8903 93.929 41.7051 93.7132 41.5811 93.4521C41.4571 93.191 41.424 92.8719 41.4816 92.4948C41.5384 92.1256 41.6963 91.8233 41.9555 91.5879C42.2137 91.3604 42.5413 91.1964 42.9383 91.0958C43.3345 91.0031 43.7748 90.9832 44.2595 91.0359Z" fill="white"/>
<path d="M38.5369 90.0488C38.97 90.1609 39.2986 90.3567 39.5226 90.6362C39.7446 90.9234 39.8778 91.2655 39.9223 91.6627C39.9591 92.0578 39.917 92.4858 39.7961 92.9468C39.6107 93.6536 39.304 94.1937 38.8757 94.5669C38.4377 94.9458 37.9016 95.0532 37.2674 94.889C36.9426 94.8049 36.687 94.6773 36.5007 94.506C36.3046 94.3403 36.162 94.1598 36.0728 93.9645C35.9759 93.7671 35.9157 93.5874 35.8921 93.4254L35.8805 93.4224L35.6205 94.4135L34.8549 94.2153L36.0851 89.5249L36.7232 89.6901L36.6004 90.6305L36.6236 90.6365C36.7335 90.5009 36.8754 90.3694 37.0491 90.2421C37.2209 90.1225 37.4331 90.0379 37.6856 89.9884C37.9283 89.9446 38.2121 89.9647 38.5369 90.0488ZM38.0746 90.6306C37.5951 90.5065 37.2096 90.5749 36.9182 90.8358C36.619 91.0948 36.3999 91.4893 36.2609 92.0194C36.1117 92.588 36.1101 93.0511 36.2557 93.4088C36.3937 93.7645 36.6947 94.0024 37.1587 94.1225C37.6692 94.2546 38.0809 94.1807 38.3938 93.9007C38.6971 93.6264 38.9131 93.2433 39.0421 92.7516C39.1771 92.2369 39.1758 91.7853 39.0381 91.3969C38.8985 91.0162 38.5773 90.7607 38.0746 90.6306Z" fill="white"/>
<path d="M34.4058 88.8653L32.8507 92.8901L33.5558 93.159L33.3496 93.6927L32.6445 93.4238L32.2579 94.4245C32.1577 94.6839 32.0267 94.8678 31.8649 94.9762C31.6957 95.0818 31.4731 95.0819 31.197 94.9767L29.8428 94.4603L30.0705 93.871L31.4359 94.3917L31.917 93.1464L30.63 92.6556L30.8362 92.122L32.1233 92.6127L33.6784 88.5879L34.4058 88.8653Z" fill="white"/>
<path d="M29.5033 86.6378C29.9798 86.8806 30.3197 87.1877 30.5231 87.5591C30.7159 87.9339 30.7993 88.3289 30.7735 88.744C30.737 89.1627 30.6239 89.5556 30.4342 89.923C30.2263 90.3256 29.9584 90.6531 29.6305 90.9054C29.2918 91.1611 28.9185 91.31 28.5106 91.3519C28.0956 91.3903 27.6712 91.299 27.2374 91.0779C26.6827 90.7952 26.3136 90.3795 26.1298 89.8308C25.9424 89.2892 25.9896 88.7109 26.2712 88.0959C26.2787 88.0641 26.297 88.0198 26.3262 87.9633C26.3517 87.9139 26.3754 87.868 26.3973 87.8256L29.7893 89.5542C30.0483 89.0526 30.1317 88.5954 30.0395 88.1826C29.9365 87.7732 29.661 87.4543 29.213 87.226C28.8788 87.0557 28.5506 86.9955 28.2284 87.0455C27.8991 87.0918 27.6312 87.2453 27.4247 87.5059L26.7527 87.1635C27.05 86.7617 27.4476 86.5049 27.9456 86.3928C28.4437 86.2807 28.9629 86.3624 29.5033 86.6378ZM29.5764 89.9142L26.9098 88.5552C26.8332 88.7036 26.7846 88.9019 26.7642 89.1503C26.7366 89.395 26.7805 89.6404 26.8959 89.8866C27.0006 90.1363 27.2164 90.3444 27.5435 90.5111C27.8422 90.6633 28.1204 90.7248 28.378 90.6955C28.6357 90.6661 28.8654 90.578 29.0671 90.4309C29.2688 90.2839 29.4386 90.1116 29.5764 89.9142Z" fill="white"/>
<path d="M22.3205 82.0206C22.6678 82.3011 22.8849 82.6147 22.972 82.9613C23.0541 83.3141 23.0324 83.6803 22.9071 84.06C22.7755 84.4347 22.5584 84.8068 22.2559 85.1764C21.792 85.7432 21.2873 86.1081 20.7418 86.2712C20.185 86.4354 19.6524 86.3121 19.1439 85.9014C18.8835 85.6911 18.7043 85.4695 18.6063 85.2369C18.497 85.0054 18.4427 84.7824 18.4431 84.5679C18.4374 84.3484 18.4577 84.1601 18.5038 84.0029L18.4945 83.9954L17.8441 84.7901L17.2302 84.2942L20.3084 80.5335L20.82 80.9467L20.3155 81.7518L20.3341 81.7669C20.4908 81.6887 20.6747 81.6275 20.886 81.5834C21.0923 81.5453 21.3206 81.5558 21.5711 81.6148C21.8102 81.675 22.06 81.8102 22.3205 82.0206ZM21.6568 82.3595C21.2724 82.0489 20.8931 81.9523 20.5189 82.0696C20.1386 82.1819 19.7744 82.4506 19.4265 82.8757C19.0534 83.3315 18.8584 83.7522 18.8416 84.1377C18.8186 84.5181 18.9931 84.8587 19.3652 85.1592C19.7745 85.4898 20.1799 85.5922 20.5816 85.4664C20.972 85.3417 21.3286 85.0823 21.6513 84.6881C21.9891 84.2754 22.1766 83.8639 22.2135 83.4538C22.2455 83.0498 22.0599 82.685 21.6568 82.3595Z" fill="white"/>
<path d="M19.2458 79.5441L15.6784 82.8509L15.2285 82.372L16.0238 81.4556L16.0075 81.4382C15.9728 81.4595 15.8869 81.4902 15.7498 81.5304C15.6127 81.5707 15.448 81.5931 15.2555 81.5977C15.0518 81.602 14.8383 81.5609 14.6152 81.4746C14.3861 81.3937 14.1571 81.2313 13.9281 80.9875C13.6392 80.6799 13.4684 80.3875 13.4158 80.1105C13.3578 79.8276 13.3814 79.556 13.4866 79.2955C13.586 79.0406 13.73 78.804 13.9185 78.5858C14.107 78.3676 14.2977 78.1691 14.4906 77.9903L16.2523 76.3572L16.7594 76.8971L14.9976 78.5302C14.612 78.8876 14.3621 79.2442 14.2479 79.5998C14.1283 79.9496 14.2484 80.316 14.6082 80.6991C14.8536 80.9604 15.1197 81.1156 15.4063 81.1647C15.6817 81.2135 15.96 81.1782 16.2412 81.0586C16.5112 80.9387 16.7689 80.765 17.0143 80.5375L18.706 78.9694L19.2458 79.5441Z" fill="white"/>
<path d="M14.0982 73.2891C14.3667 73.6742 14.5033 74.0583 14.508 74.4414C14.5081 74.818 14.3992 75.1778 14.1815 75.5208C13.9526 75.8618 13.6443 76.1657 13.2567 76.4325C12.6588 76.8439 12.0637 77.0361 11.4713 77.0091C10.8788 76.9822 10.3824 76.6815 9.98191 76.1072C9.79531 75.8396 9.68658 75.586 9.65568 75.3465C9.61364 75.105 9.61636 74.8858 9.66385 74.689C9.7113 74.4921 9.76938 74.3314 9.83811 74.2069C9.90681 74.0823 9.95302 74.0022 9.9768 73.9666L9.96314 73.947L7.41376 75.6868L6.96321 75.0407L12.5115 71.2228L12.8938 71.771L12.0751 72.4792L12.0888 72.4988C12.1307 72.4892 12.2247 72.4777 12.3708 72.4641C12.5169 72.4505 12.69 72.4617 12.8902 72.4978C13.0858 72.5274 13.2933 72.6019 13.5127 72.7214C13.721 72.8388 13.9162 73.028 14.0982 73.2891ZM13.4273 73.519C13.1587 73.1339 12.8089 72.9111 12.3777 72.8505C11.9354 72.7878 11.4843 72.9147 11.0244 73.2312C10.5711 73.5431 10.2927 73.9037 10.1892 74.313C10.0791 74.7268 10.1583 75.1262 10.4268 75.5113C10.6407 75.818 10.8882 76.0196 11.1693 76.1159C11.4438 76.2168 11.7245 76.236 12.0116 76.1737C12.2987 76.1113 12.5704 75.992 12.8266 75.8157C13.0763 75.6439 13.2865 75.4365 13.4573 75.1934C13.6215 74.9548 13.7122 74.6944 13.7293 74.4122C13.7463 74.13 13.6457 73.8323 13.4273 73.519Z" fill="white"/>
<path d="M2.07776 64.7604L1.79772 64.0381L8.09619 61.6284L8.6175 62.9732L3.84981 68.3705L3.85843 68.3927L9.83247 66.1072L10.1125 66.8296L3.81404 69.2392L3.32719 67.9834L8.06042 62.4972L8.0518 62.4749L2.07776 64.7604Z" fill="white"/>
<path d="M7.37406 58.1202C7.4574 58.5084 7.45456 58.8378 7.36554 59.1083C7.27485 59.3711 7.12559 59.5894 6.91778 59.7633C6.70215 59.9389 6.45862 60.0798 6.18723 60.186C5.90635 60.286 5.62132 60.3667 5.33211 60.428L2.86994 60.9496L2.70992 60.2042L5.18382 59.6801C5.49647 59.6139 5.77901 59.5215 6.03144 59.4031C6.28384 59.2847 6.46821 59.1158 6.58456 58.8963C6.69922 58.669 6.71736 58.3729 6.63902 58.008C6.56401 57.6586 6.42752 57.4033 6.22951 57.2424C6.02202 57.0752 5.77931 56.9724 5.50136 56.9339C5.22342 56.8954 4.94208 56.8981 4.65736 56.9422L2.12484 57.4787L1.95982 56.71L6.73174 55.6991L6.86926 56.3397L5.82982 56.6938L5.83482 56.7171C5.97605 56.7278 6.15377 56.7754 6.36804 56.8599C6.5823 56.9444 6.78479 57.0882 6.97549 57.2913C7.16452 57.4867 7.29737 57.763 7.37406 58.1202Z" fill="white"/>
<path d="M6.44533 53.0599C6.47551 53.3521 6.41722 53.5655 6.27042 53.7002C6.12281 53.827 5.90992 53.9045 5.63163 53.9329L2.24473 54.278L2.32301 55.0362L1.75058 55.0945C1.72449 54.8418 1.68545 54.6582 1.63346 54.5438C1.57272 54.4223 1.45325 54.3547 1.27508 54.3408C1.09691 54.3271 0.809063 54.3404 0.411537 54.3809L0.344264 53.7294L1.59646 53.6018L1.48149 52.4882L2.05392 52.4298L2.1689 53.5434L5.83009 53.1704L5.71389 52.045L6.33403 51.9818L6.44533 53.0599Z" fill="white"/>
<path d="M6.24975 50.4705L1.37054 50.4831L1.36872 49.7924L2.65125 49.7057C2.43533 49.6586 2.22728 49.5639 2.02711 49.4215C1.82693 49.2791 1.66657 49.085 1.54605 48.8392C1.41751 48.5854 1.35674 48.2717 1.36375 47.8989L1.36316 47.6727L2.21432 47.6705L2.21495 47.9086C2.21628 48.4166 2.29322 48.8015 2.44576 49.0631C2.59028 49.3168 2.79454 49.4909 3.05853 49.5855C3.3225 49.6721 3.62632 49.7151 3.96998 49.7142L6.24775 49.7083L6.24975 50.4705Z" fill="white"/>
<path d="M0.946959 45.7544C0.93522 45.9285 0.88335 46.0444 0.791343 46.1022C0.691925 46.151 0.570428 46.171 0.42689 46.1615C0.307276 46.1535 0.205495 46.1187 0.121502 46.0576C0.0300972 45.9876 -0.00973533 45.8656 0.00200425 45.6916C0.0137839 45.5169 0.0693627 45.4054 0.168781 45.3565C0.260787 45.2988 0.366575 45.2742 0.486189 45.2822C0.629727 45.2917 0.747218 45.3312 0.838622 45.4011C0.922615 45.4622 0.958739 45.5798 0.946959 45.7544ZM6.31593 46.4937L1.44762 46.1697L1.49891 45.4092L6.36722 45.7332L6.31593 46.4937Z" fill="white"/>
<path d="M6.66242 43.0337C6.62285 43.3246 6.51582 43.5187 6.34134 43.6155C6.16791 43.7046 5.94268 43.7302 5.66545 43.693L2.29144 43.2402L2.18871 43.9955L1.61846 43.9189C1.65273 43.667 1.65805 43.4796 1.6345 43.3563C1.60407 43.2242 1.50394 43.1303 1.33395 43.0756C1.16396 43.0209 0.880998 42.9667 0.484985 42.9136L0.573266 42.2645L1.8207 42.4319L1.97158 41.3225L2.54184 41.3991L2.39096 42.5084L6.03822 42.998L6.1907 41.8768L6.80848 41.9597L6.66242 43.0337Z" fill="white"/>
<path d="M1.89884 38.9704C1.86221 39.1411 1.79422 39.2484 1.69487 39.2925C1.58944 39.3268 1.46632 39.3294 1.32562 39.2996C1.20838 39.2747 1.11264 39.2258 1.03828 39.1535C0.957862 39.0713 0.935965 38.9449 0.972592 38.7742C1.00934 38.603 1.08037 38.5005 1.18579 38.4663C1.28515 38.4222 1.39339 38.4128 1.51064 38.4377C1.65133 38.4675 1.76195 38.5232 1.84237 38.6053C1.91673 38.6777 1.93559 38.7992 1.89884 38.9704ZM7.10666 40.4633L2.33472 39.4524L2.49473 38.707L7.26667 39.7178L7.10666 40.4633Z" fill="white"/>
<path d="M8.34636 36.1909C8.11062 36.9324 7.71269 37.4196 7.15262 37.6523C6.58743 37.8746 5.95809 37.877 5.26457 37.6594C4.56107 37.4468 4.04725 37.0858 3.7231 36.5763C3.39385 36.0565 3.34211 35.4284 3.56789 34.6918C3.79895 33.965 4.19452 33.4852 4.75442 33.2531C5.30922 33.0107 5.94854 33.0033 6.67255 33.2304C7.1222 33.3715 7.50085 33.5777 7.8085 33.8491C8.11617 34.1204 8.32507 34.452 8.43483 34.8449C8.53717 35.2348 8.50774 35.6833 8.34636 36.1909ZM7.70619 35.99C7.83146 35.596 7.84005 35.2659 7.73207 34.9991C7.62663 34.7243 7.45383 34.5034 7.21344 34.3368C6.96796 34.1599 6.70423 34.0272 6.42225 33.9387C6.14026 33.8503 5.84765 33.8084 5.5444 33.8132C5.24369 33.81 4.97067 33.8911 4.72552 34.0558C4.4829 34.2126 4.29905 34.4878 4.17378 34.8819C4.04868 35.2753 4.03885 35.6095 4.14428 35.8842C4.25224 36.151 4.42886 36.3731 4.67434 36.55C4.92235 36.719 5.18717 36.8483 5.46915 36.9368C5.75113 37.0252 6.04266 37.0705 6.34338 37.0737C6.63901 37.0665 6.90819 36.9842 7.15083 36.8274C7.39599 36.6627 7.58109 36.3835 7.70619 35.99Z" fill="white"/>
<path d="M10.3889 30.9847C10.2166 31.343 10.0121 31.6024 9.7756 31.7627C9.54243 31.916 9.29003 31.9988 9.01865 32.0105C8.74007 32.0189 8.46049 31.9832 8.1802 31.903C7.89607 31.8123 7.62072 31.7034 7.35389 31.5768L5.08229 30.4987L5.41304 29.811L7.69546 30.8942C7.98391 31.0311 8.26444 31.1293 8.53727 31.1881C8.81009 31.247 9.05984 31.225 9.28677 31.1215C9.51707 31.0111 9.71319 30.7874 9.87521 30.4505C10.0302 30.1281 10.0788 29.843 10.0206 29.5956C9.95884 29.3373 9.82951 29.109 9.63287 28.91C9.43624 28.7111 9.21148 28.5431 8.95884 28.4054L6.62234 27.2965L6.96342 26.5872L11.366 28.6767L11.0818 29.2677L10.0406 28.9188L10.0302 28.9402C10.1355 29.0344 10.2472 29.1798 10.3652 29.3764C10.4832 29.573 10.5553 29.8098 10.5818 30.0863C10.6116 30.3559 10.5473 30.6553 10.3889 30.9847Z" fill="white"/>
<path d="M13.3009 25.7916C13.0476 26.1771 12.7577 26.4441 12.431 26.5928C12.1021 26.7302 11.7858 26.7904 11.4818 26.7738C11.1823 26.7503 10.9455 26.6822 10.7715 26.5694L11.1777 25.951C11.1844 25.9553 11.2369 25.9844 11.3348 26.0387C11.4374 26.0859 11.5684 26.119 11.7282 26.1372C11.888 26.1555 12.0629 26.1217 12.2526 26.0363C12.4359 25.9461 12.6189 25.7619 12.8024 25.4826C12.9989 25.1834 13.1137 24.8924 13.1462 24.6106C13.1833 24.3217 13.086 24.1065 12.8539 23.966C12.6598 23.8402 12.469 23.811 12.2811 23.8791C12.0912 23.9358 11.9018 24.0498 11.7126 24.2215C11.5171 24.3884 11.3183 24.5675 11.1161 24.7592C10.9141 24.9503 10.7053 25.1229 10.4894 25.2773C10.2714 25.4203 10.0441 25.5048 9.80694 25.5316C9.57012 25.558 9.31434 25.4825 9.03992 25.3046C8.70527 25.0877 8.53918 24.7667 8.54163 24.3416C8.53739 23.9123 8.68824 23.4647 8.99388 22.9994C9.16423 22.7401 9.38037 22.5055 9.64198 22.2962C9.89723 22.0819 10.1853 21.9558 10.5061 21.9178C10.8206 21.8749 11.1574 21.9795 11.5167 22.2316L11.1236 22.83C10.8781 22.6517 10.6503 22.5844 10.44 22.6286C10.2299 22.6723 10.0457 22.7712 9.8876 22.9247C9.72741 23.0668 9.59915 23.2112 9.50284 23.3578C9.31513 23.6436 9.21373 23.9141 9.1983 24.1701C9.18746 24.419 9.27908 24.6064 9.47318 24.7322C9.66059 24.8537 9.8461 24.8837 10.0294 24.8226C10.2105 24.7502 10.3966 24.634 10.5879 24.4736C10.777 24.3019 10.9724 24.1207 11.1744 23.9295C11.3742 23.727 11.5853 23.551 11.8076 23.4014C12.0302 23.2514 12.2631 23.1656 12.5066 23.1436C12.7547 23.1146 13.0192 23.1914 13.3003 23.3737C13.6885 23.6253 13.8661 23.9723 13.8326 24.4156C13.7927 24.854 13.6154 25.3129 13.3009 25.7916Z" fill="white"/>
<path d="M19.1633 18.6877C18.9365 18.9111 18.7071 19.0644 18.4747 19.148C18.2427 19.22 18.025 19.2556 17.8215 19.2547C17.6241 19.248 17.4543 19.2251 17.3132 19.1852C17.1721 19.1454 17.082 19.1168 17.0423 19.0999L17.0253 19.1167L17.6999 19.9616L17.2232 20.4312L12.4707 15.6703L13.0325 15.1168L15.2189 17.2902L15.2359 17.2734C15.2193 17.2339 15.1887 17.1466 15.1438 17.012C15.0993 16.8769 15.0719 16.7082 15.0611 16.5064C15.0508 16.3041 15.0855 16.091 15.1656 15.8668C15.246 15.631 15.4024 15.3987 15.6348 15.1698C15.9697 14.8398 16.3236 14.6421 16.6969 14.5763C17.0761 14.5046 17.4574 14.5483 17.8407 14.7074C18.2189 14.8604 18.5766 15.1063 18.9142 15.4445C19.2519 15.7828 19.4963 16.1401 19.6472 16.517C19.7985 16.8935 19.8364 17.2698 19.7611 17.6459C19.6917 18.0162 19.4927 18.3631 19.1633 18.6877ZM18.546 18.3398C18.8184 18.0715 18.9722 17.7969 19.0072 17.5165C19.0426 17.2357 19.0012 16.9633 18.8835 16.6991C18.7606 16.4289 18.5918 16.187 18.3779 15.9728C18.1585 15.7529 17.9135 15.5862 17.6425 15.4729C17.372 15.3592 17.0921 15.3274 16.8037 15.3768C16.5097 15.4205 16.2294 15.5735 15.9625 15.8364C15.628 16.166 15.4765 16.5444 15.5085 16.9714C15.5352 17.3923 15.7423 17.7976 16.1306 18.1866C16.5246 18.5812 16.942 18.7906 17.3826 18.815C17.8235 18.8279 18.2114 18.6694 18.546 18.3398Z" fill="white"/>
<path d="M23.1088 15.2748C22.7513 15.5427 22.393 15.6769 22.0334 15.6779C21.6689 15.6726 21.3162 15.564 20.9751 15.3522C20.6402 15.1357 20.3287 14.8371 20.0399 14.4568C19.597 13.8737 19.3614 13.2994 19.3325 12.7344C19.3054 12.1579 19.5534 11.6737 20.0765 11.2817C20.3444 11.0809 20.604 10.961 20.8547 10.9223C21.1073 10.8723 21.3379 10.8734 21.5476 10.9251C21.7635 10.9722 21.9426 11.0369 22.0852 11.119L22.0948 11.1118L21.4739 10.2942L22.1056 9.82079L25.044 13.6902L24.5176 14.0847L23.8516 13.4054L23.8324 13.4197C23.8713 13.5895 23.8872 13.7815 23.8796 13.996C23.8673 14.2042 23.8026 14.4216 23.6849 14.6491C23.5689 14.8653 23.3767 15.074 23.1088 15.2748ZM22.9365 14.5536C23.3322 14.257 23.5174 13.9144 23.4923 13.5255C23.4734 13.1318 23.2982 12.7162 22.9661 12.2788C22.6099 11.8098 22.2456 11.5209 21.8727 11.4125C21.5065 11.2991 21.1317 11.386 20.7489 11.6729C20.3278 11.9885 20.1308 12.3549 20.1574 12.7725C20.1859 13.1788 20.3539 13.585 20.6619 13.9906C20.9844 14.4153 21.3415 14.6947 21.7337 14.8284C22.121 14.9559 22.5216 14.8645 22.9365 14.5536Z" fill="white"/>
<path d="M27.0656 12.466L26.3835 12.8404L23.1129 6.96175L23.7949 6.5873L25.9927 10.5377L27.0231 6.92401L27.8835 6.45163L27.0364 9.31151L30.2972 10.6916L29.4683 11.1467L26.8147 10.0455L26.4335 11.3298L27.0656 12.466Z" fill="white"/>
<path d="M33.3639 9.53209C32.8663 9.72804 32.4098 9.77971 31.9944 9.68709C31.5838 9.58404 31.2295 9.38618 30.9321 9.09335C30.6396 8.79007 30.4162 8.44674 30.263 8.06295C30.0951 7.64225 30.0239 7.2262 30.0487 6.81501C30.0784 6.39337 30.2117 6.01636 30.4485 5.68396C30.6932 5.3485 31.042 5.09157 31.495 4.91317C32.0745 4.68497 32.6328 4.68293 33.1691 4.90728C33.7031 5.12403 34.1097 5.54038 34.3896 6.15611C34.4092 6.18255 34.4302 6.22552 34.4538 6.28457C34.4744 6.33623 34.4935 6.38421 34.5112 6.42849L30.9672 7.82407C31.1763 8.3481 31.4678 8.7116 31.8409 8.91481C32.219 9.10754 32.6417 9.11189 33.1098 8.92757C33.4592 8.78999 33.7209 8.58446 33.8954 8.31077C34.0777 8.03402 34.138 7.73271 34.0763 7.40684L34.7784 7.13035C34.8869 7.61716 34.8196 8.08346 34.5759 8.5296C34.3328 8.97551 33.929 9.30958 33.3639 9.53209ZM30.8349 7.4278L33.621 6.33065C33.5592 6.17566 33.441 6.0087 33.2664 5.82976C33.0997 5.64776 32.8845 5.51898 32.622 5.44298C32.3644 5.35653 32.0646 5.38067 31.7224 5.5154C31.4104 5.63828 31.1806 5.80564 31.033 6.01749C30.8854 6.22934 30.801 6.459 30.7793 6.70669C30.7581 6.95416 30.7766 7.19453 30.8349 7.4278Z" fill="white"/>
<path d="M39.0686 7.7421C38.6093 7.84889 38.1995 7.83409 37.8392 7.69769C37.4866 7.55952 37.1892 7.32698 36.9484 6.99972C36.7127 6.66312 36.5417 6.26663 36.4343 5.81053C36.2685 5.10706 36.307 4.48656 36.5498 3.94904C36.7925 3.41152 37.2559 3.06324 37.9411 2.90394C38.2597 2.82985 38.5375 2.82235 38.7731 2.88173C39.0144 2.93161 39.2187 3.0146 39.3858 3.13067C39.5523 3.24688 39.6816 3.35951 39.7732 3.46868C39.8642 3.57798 39.9224 3.65006 39.9473 3.68505L39.9706 3.67962L39.2775 0.685193L40.0479 0.506075L41.586 7.03451L40.9323 7.18649L40.5697 6.17L40.5463 6.17543C40.5397 6.21777 40.5162 6.30884 40.4753 6.4488C40.4344 6.58875 40.3603 6.74461 40.253 6.91633C40.1533 7.08628 40.0074 7.25066 39.8152 7.40952C39.6287 7.55885 39.3797 7.66977 39.0686 7.7421ZM39.0997 7.03771C39.5584 6.93106 39.8955 6.68958 40.111 6.31335C40.3316 5.92773 40.3788 5.46422 40.2513 4.92309C40.1256 4.38968 39.8898 4.00012 39.545 3.75413C39.1977 3.50055 38.7944 3.42715 38.3357 3.53381C37.9698 3.61889 37.6904 3.77354 37.497 3.99789C37.3018 4.21451 37.1803 4.46699 37.1337 4.75507C37.0864 5.04328 37.0986 5.33806 37.1697 5.63955C37.2389 5.93332 37.3555 6.20381 37.5208 6.45077C37.6837 6.69013 37.8941 6.86956 38.1524 6.98886C38.4102 7.1083 38.7261 7.12456 39.0997 7.03771Z" fill="white"/>
<path d="M46.5801 6.52199C46.3808 6.53334 46.242 6.48954 46.1643 6.39061C46.0938 6.28327 46.0548 6.15828 46.0465 6.0156C46.0378 5.86502 46.0622 5.73635 46.1203 5.62968C46.1862 5.52256 46.319 5.46328 46.5183 5.45192C46.7176 5.44057 46.8522 5.48461 46.9222 5.58398C47 5.68291 47.0432 5.80773 47.0519 5.95831C47.0606 6.10889 47.032 6.2378 46.9662 6.34491C46.9081 6.45159 46.7794 6.51063 46.5801 6.52199Z" fill="white"/>
<path d="M54.5171 6.95905C54.0491 6.90016 53.6067 6.76844 53.1899 6.56396C52.7818 6.35254 52.4592 6.06789 52.2233 5.71007C51.9878 5.34431 51.8993 4.90102 51.9578 4.3802L52.719 4.47598C52.716 4.49961 52.7152 4.56753 52.7172 4.67982C52.7186 4.79204 52.7418 4.92702 52.7864 5.08468C52.8397 5.23543 52.9317 5.39507 53.0637 5.56373C53.196 5.72443 53.3909 5.86899 53.6488 5.99748C53.9061 6.1259 54.245 6.21656 54.6654 6.26946C55.1328 6.32828 55.4982 6.30624 55.7614 6.2033C56.0251 6.09243 56.2117 5.95583 56.3212 5.79357C56.4395 5.62438 56.5051 5.48859 56.5182 5.38619C56.561 5.11149 56.5136 4.88144 56.3766 4.69613C56.2389 4.51075 56.0419 4.34991 55.7855 4.21362C55.5369 4.0783 55.2589 3.95128 54.952 3.83263C54.6445 3.71391 54.3381 3.59133 54.0322 3.4648C53.735 3.33137 53.4646 3.17731 53.221 3.0026C52.9785 2.82003 52.7967 2.60109 52.6764 2.34586C52.5555 2.09056 52.527 1.77886 52.5902 1.41069C52.6509 1.05819 52.8126 0.770434 53.0749 0.547343C53.3366 0.324177 53.6669 0.169668 54.0645 0.0836557C54.4709 -0.00925876 54.92 -0.0247747 55.4118 0.0371076C55.8637 0.0939765 56.2694 0.229058 56.6289 0.442354C56.9972 0.648748 57.2758 0.927889 57.4647 1.27979C57.6531 1.63161 57.7089 2.04678 57.6322 2.52529L56.8829 2.43101C56.9288 2.13268 56.9005 1.88102 56.7979 1.67605C56.7041 1.46417 56.5644 1.29454 56.3794 1.16723C56.1939 1.03984 55.9971 0.943065 55.7881 0.876743C55.5878 0.803518 55.4082 0.756916 55.25 0.737012C54.7505 0.674157 54.3253 0.720686 53.9755 0.87674C53.6251 1.03272 53.4259 1.26776 53.378 1.58184C53.3429 1.85752 53.3939 2.08801 53.5315 2.2734C53.6686 2.45871 53.8621 2.6191 54.1107 2.75442C54.368 2.88283 54.6506 3.00243 54.9591 3.11327C55.267 3.22404 55.5699 3.34618 55.8671 3.47961C56.173 3.60613 56.448 3.75678 56.6916 3.93148C56.9351 4.10619 57.1163 4.32505 57.2362 4.58823C57.3555 4.85133 57.383 5.17091 57.3194 5.54703C57.2561 5.91521 57.0928 6.21478 56.8302 6.44582C56.5679 6.66893 56.2377 6.82744 55.8391 6.92132C55.4414 7.00735 55.0005 7.01988 54.5171 6.95905Z" fill="white"/>
<path d="M60.2178 8.04107C59.7871 7.92186 59.4615 7.72049 59.2423 7.43728C59.0251 7.14645 58.8977 6.80211 58.8599 6.40428C58.8302 6.0087 58.8792 5.5813 59.0079 5.12241C59.2052 4.41878 59.5213 3.88401 59.9556 3.51794C60.4001 3.14646 60.938 3.04805 61.5691 3.22271C61.8925 3.3122 62.146 3.44419 62.3292 3.61852C62.5227 3.78744 62.6624 3.97034 62.7479 4.16707C62.8414 4.36603 62.899 4.5468 62.9194 4.70905L62.931 4.71225L63.2077 3.72563L63.9699 3.93657L62.6604 8.60579L62.0253 8.43001L62.1639 7.49174L62.1409 7.48534C62.0287 7.61915 61.8848 7.74827 61.7087 7.87261C61.5353 7.98948 61.3216 8.0704 61.0681 8.11565C60.8248 8.15545 60.5412 8.13056 60.2178 8.04107ZM60.6899 7.46705C61.1675 7.59921 61.5539 7.5372 61.8497 7.28113C62.1536 7.02732 62.3789 6.6364 62.5269 6.10867C62.6857 5.5427 62.6954 5.07974 62.5556 4.71962C62.4238 4.36173 62.1267 4.11879 61.6648 3.99095C61.1566 3.85032 60.7439 3.91743 60.4261 4.19211C60.1185 4.46137 59.8958 4.84067 59.7585 5.33015C59.6148 5.84258 59.6089 6.29424 59.7395 6.68479C59.8729 7.06786 60.1899 7.32866 60.6899 7.46705Z" fill="white"/>
<path d="M64.3282 9.29329L65.9512 5.29501L65.2508 5.01442L65.466 4.48426L66.1664 4.76485L66.5699 3.7708C66.6746 3.51308 66.8084 3.3313 66.9722 3.22568C67.1431 3.12295 67.3654 3.12637 67.64 3.23638L68.9853 3.77529L68.7477 4.36067L67.3913 3.81731L66.8891 5.05434L68.1677 5.56653L67.9525 6.09669L66.6739 5.5845L65.0509 9.58279L64.3282 9.29329Z" fill="white"/>
<path d="M69.1962 11.6044C68.7242 11.3537 68.3895 11.0409 68.1922 10.6661C68.0061 10.2882 67.9292 9.89176 67.962 9.47708C68.0055 9.05904 68.1255 8.66811 68.3214 8.30401C68.5361 7.9049 68.8098 7.58207 69.1417 7.33523C69.4849 7.08532 69.8606 6.94276 70.269 6.90755C70.6848 6.87628 71.1076 6.97475 71.5374 7.20296C72.0872 7.4949 72.4494 7.91682 72.6236 8.46845C72.8015 9.01307 72.7449 9.59069 72.4527 10.2007C72.4445 10.2324 72.4256 10.2763 72.3955 10.3324C72.3691 10.3814 72.3446 10.4269 72.322 10.4689L68.9599 8.6836C68.6924 9.18073 68.6014 9.63655 68.6864 10.0508C68.7826 10.4619 69.0524 10.7853 69.4965 11.0211C69.8279 11.1971 70.1549 11.2627 70.4779 11.2182C70.8078 11.1773 71.0783 11.0283 71.2893 10.7713L71.9554 11.125C71.6515 11.5218 71.2492 11.7717 70.7495 11.8755C70.2498 11.9793 69.7317 11.8887 69.1962 11.6044ZM69.1789 8.32723L71.822 9.73077C71.9011 9.58373 71.953 9.38623 71.9777 9.13826C72.0093 8.89394 71.9697 8.64788 71.8585 8.39978C71.758 8.14834 71.5457 7.93657 71.2216 7.7645C70.9256 7.6073 70.6485 7.54119 70.3904 7.56617C70.1323 7.59115 69.9013 7.67556 69.697 7.81912C69.4926 7.96268 69.3199 8.13205 69.1789 8.32723Z" fill="white"/>
<path d="M76.2962 16.3388C75.9536 16.0524 75.7419 15.7354 75.6606 15.3874C75.5846 15.0333 75.6124 14.6674 75.7442 14.2899C75.8819 13.9173 76.1054 13.549 76.4141 13.1845C76.8875 12.6256 77.398 12.2689 77.9465 12.1152C78.5057 11.96 79.0361 12.0922 79.5379 12.5116C79.7948 12.7263 79.9699 12.9505 80.0642 13.185C80.1692 13.418 80.22 13.642 80.216 13.8566C80.2181 14.0762 80.1945 14.264 80.1458 14.4205L80.155 14.4281L80.8188 13.6445L81.4242 14.1505L78.2828 17.8593L77.7783 17.4376L78.2963 16.641L78.278 16.6257C78.12 16.7012 77.9347 16.759 77.723 16.8C77.516 16.8344 77.2877 16.82 77.0386 16.7571C76.8002 16.6927 76.553 16.5535 76.2962 16.3388ZM76.9654 16.0111C77.3443 16.3278 77.7222 16.431 78.0983 16.3199C78.4803 16.2138 78.8491 15.9514 79.2042 15.5322C79.5849 15.0827 79.7867 14.665 79.8103 14.2801C79.8395 13.8998 79.6711 13.5567 79.3041 13.25C78.9005 12.9126 78.4965 12.8032 78.0931 12.9225C77.7003 13.0404 77.3397 13.2941 77.0104 13.6829C76.6656 14.0899 76.4711 14.498 76.4273 14.9076C76.3883 15.3108 76.5678 15.6787 76.9654 16.0111Z" fill="white"/>
<path d="M79.3286 18.8663L82.9514 15.6196L83.3931 16.1059L82.5824 17.0089L82.5984 17.0266C82.6333 17.0057 82.7197 16.9764 82.8576 16.9386C82.9951 16.9004 83.1602 16.8807 83.353 16.8796C83.5565 16.8785 83.7695 16.9234 83.9912 17.0134C84.2188 17.0981 84.445 17.2643 84.6699 17.5119C84.9533 17.824 85.1194 18.1195 85.1673 18.3974C85.2203 18.681 85.1923 18.9524 85.0827 19.211C84.979 19.4643 84.8308 19.6981 84.6389 19.9135C84.4465 20.1283 84.2526 20.3238 84.0568 20.4993L82.2676 22.1027L81.7698 21.5545L83.5589 19.951C83.9506 19.6 84.2062 19.2474 84.3267 18.8941C84.4519 18.546 84.3383 18.1779 83.985 17.7889C83.744 17.5236 83.4804 17.3637 83.1949 17.31C82.9201 17.2563 82.6414 17.2872 82.3583 17.4022C82.0863 17.5176 81.8257 17.687 81.5765 17.9103L79.8586 19.4499L79.3286 18.8663Z" fill="white"/>
<path d="M84.3695 25.2063C84.1074 24.8167 83.9774 24.4304 83.9793 24.0474C83.9856 23.6708 84.1003 23.3126 84.3241 22.9736C84.5585 22.6361 84.872 22.3377 85.2641 22.0775C85.8689 21.6761 86.4672 21.4939 87.059 21.5307C87.6509 21.5676 88.142 21.8762 88.5329 22.4574C88.7147 22.7278 88.8194 22.9834 88.8462 23.2234C88.884 23.4654 88.8776 23.6845 88.8269 23.8807C88.7759 24.0764 88.7152 24.2363 88.6446 24.3598C88.5735 24.4829 88.5261 24.5624 88.5018 24.5978L88.5151 24.6176L91.0936 22.9206L91.5331 23.5742L85.921 27.2989L85.5481 26.7444L86.3786 26.0499L86.3653 26.0301C86.3231 26.0388 86.229 26.049 86.0827 26.0601C85.9364 26.0713 85.7635 26.0571 85.564 26.0177C85.3688 25.9847 85.1626 25.9067 84.9453 25.7838C84.7391 25.6629 84.547 25.4702 84.3695 25.2063ZM85.0443 24.9877C85.306 25.3768 85.652 25.6055 86.0823 25.6737C86.5233 25.7434 86.9767 25.6243 87.4419 25.3156C87.9004 25.0113 88.1847 24.655 88.2953 24.2479C88.4123 23.8358 88.3397 23.435 88.078 23.0458C87.8692 22.7354 87.6253 22.5299 87.3459 22.4289C87.0731 22.3234 86.7925 22.2992 86.5046 22.357C86.2164 22.4144 85.9428 22.5293 85.6837 22.7014C85.4311 22.869 85.2172 23.0725 85.0426 23.313C84.8742 23.5487 84.7791 23.8073 84.7574 24.0895C84.7354 24.3712 84.8311 24.6708 85.0443 24.9877Z" fill="white"/>
<path d="M96.244 33.9345L96.5118 34.6615L90.1734 36.9656L89.6749 35.6123L94.5333 30.2954L94.525 30.2731L88.5132 32.4585L88.2454 31.7315L94.5837 29.4274L95.0493 30.6912L90.2239 36.0976L90.2321 36.12L96.244 33.9345Z" fill="white"/>
<path d="M90.8361 40.4854C90.7593 40.0957 90.7677 39.7664 90.8613 39.4976C90.9565 39.2364 91.1093 39.0204 91.3201 38.8501C91.5387 38.6784 91.7846 38.5414 92.0577 38.4397C92.3402 38.3442 92.6266 38.2685 92.9168 38.212L95.3875 37.7316L95.5348 38.4796L93.0524 38.9623C92.7387 39.0233 92.4546 39.1107 92.2002 39.2251C91.9459 39.3395 91.7587 39.5051 91.6386 39.7226C91.5201 39.9477 91.4969 40.2435 91.5691 40.6099C91.6382 40.9605 91.7704 41.2181 91.9656 41.3822C92.1703 41.553 92.4112 41.6596 92.6885 41.7028C92.9657 41.746 93.247 41.7477 93.5325 41.7086L96.0737 41.2144L96.2257 41.9858L91.4374 42.9169L91.3107 42.2741L92.356 41.9373L92.3514 41.914C92.2103 41.9007 92.0334 41.8502 91.8206 41.7623C91.6079 41.6745 91.4078 41.5271 91.2206 41.3208C91.0349 41.1221 90.9067 40.8436 90.8361 40.4854Z" fill="white"/>
<path d="M91.6791 45.5605C91.6539 45.268 91.7157 45.0554 91.8648 44.9232C92.0145 44.7987 92.2287 44.7249 92.5074 44.7012L95.8997 44.4127L95.8343 43.6533L96.4076 43.6045C96.4294 43.8579 96.4653 44.0419 96.5154 44.1571C96.5741 44.2794 96.6924 44.3495 96.8703 44.366C97.0482 44.3826 97.3362 44.3742 97.7344 44.3403L97.7906 44.993L96.5364 45.0996L96.6326 46.215L96.0592 46.2638L95.9631 45.1484L92.2961 45.4602L92.3932 46.5875L91.7721 46.6403L91.6791 45.5605Z" fill="white"/>
<path d="M91.8308 48.1521L96.7096 48.2209L96.6997 48.9116L95.4159 48.9768C95.631 49.0275 95.8374 49.1257 96.0352 49.2714C96.2329 49.4171 96.39 49.6141 96.5063 49.8617C96.6305 50.1177 96.686 50.4323 96.6727 50.8049L96.6694 51.0312L95.8184 51.0192L95.8218 50.781C95.829 50.2732 95.7586 49.8869 95.6105 49.6227C95.4703 49.3671 95.269 49.1892 95.0067 49.0902C94.7442 48.9995 94.4411 48.9512 94.0975 48.9464L91.82 48.9143L91.8308 48.1521Z" fill="white"/>
<path d="M97.0531 52.956C97.0679 52.7816 97.1217 52.6665 97.2146 52.6109C97.3149 52.5631 97.4367 52.5458 97.58 52.5577C97.6995 52.5677 97.8007 52.6036 97.8836 52.6667C97.9739 52.7375 98.0116 52.8602 97.9969 53.0347C97.9822 53.2085 97.9248 53.3191 97.8245 53.3669C97.7316 53.4225 97.6253 53.4459 97.5059 53.4359C97.3625 53.424 97.2458 53.382 97.1555 53.3111C97.0726 53.2481 97.0385 53.1299 97.0531 52.956ZM91.6974 52.1273L96.5596 52.5325L96.4954 53.292L91.6333 52.8868L91.6974 52.1273Z" fill="white"/>
<path d="M91.2919 55.5852C91.3364 55.295 91.4467 55.1027 91.6228 55.0089C91.7977 54.9228 92.0233 54.9009 92.2999 54.9427L95.6657 55.4521L95.7813 54.6986L96.3502 54.7847C96.3116 55.0361 96.3031 55.2233 96.3245 55.347C96.3527 55.4796 96.4512 55.5752 96.6203 55.6327C96.7893 55.6902 97.0713 55.7492 97.4664 55.809L97.3671 56.4565L96.1226 56.2682L95.9529 57.3749L95.384 57.2888L95.5538 56.1821L91.9153 55.6314L91.7438 56.7499L91.1275 56.6566L91.2919 55.5852Z" fill="white"/>
<path d="M95.9867 59.7232C96.0262 59.5532 96.096 59.447 96.1961 59.4046C96.3021 59.372 96.4252 59.3715 96.5654 59.4037C96.6822 59.4305 96.7771 59.481 96.8502 59.5546C96.9293 59.6381 96.949 59.7649 96.9095 59.9348C96.8699 60.1054 96.7971 60.2067 96.6911 60.2392C96.591 60.2816 96.4827 60.2892 96.3658 60.2624C96.2257 60.2302 96.116 60.1727 96.037 60.0892C95.9639 60.0156 95.9471 59.8938 95.9867 59.7232ZM90.8049 58.1437L95.559 59.234L95.3864 59.9767L90.6323 58.8864L90.8049 58.1437Z" fill="white"/>
<path d="M89.4931 62.3948C89.7415 61.6567 90.1477 61.1763 90.7114 60.9536C91.2803 60.7407 91.9095 60.7488 92.5993 60.9779C93.2993 61.2016 93.8069 61.5712 94.1222 62.0865C94.4428 62.6112 94.4839 63.2402 94.2456 63.9734C94.0023 64.6963 93.5988 65.1688 93.0349 65.3921C92.4763 65.6247 91.8367 65.6219 91.1166 65.3828C90.6694 65.2342 90.2943 65.0217 89.9913 64.7453C89.6883 64.4688 89.4852 64.1333 89.3819 63.7392C89.2864 63.3471 89.3233 62.8991 89.4931 62.3948ZM90.1298 62.6063C89.9981 62.9977 89.9839 63.3276 90.0872 63.5967C90.1881 63.8726 90.3572 64.0964 90.5945 64.2675C90.837 64.4485 91.0984 64.5856 91.3789 64.6788C91.6593 64.7719 91.9512 64.8186 92.2545 64.8189C92.5553 64.8265 92.8297 64.75 93.0774 64.59C93.3228 64.4367 93.5113 64.1646 93.643 63.7733C93.7749 63.3814 93.7904 63.0474 93.6894 62.7716C93.5862 62.5024 93.4131 62.278 93.1707 62.097C92.9258 61.9233 92.663 61.7902 92.3825 61.697C92.1021 61.6039 91.8115 61.5532 91.5107 61.5456C91.215 61.5478 90.9447 61.625 90.6992 61.7783C90.4515 61.9384 90.2617 62.2144 90.1298 62.6063Z" fill="white"/>
<path d="M87.361 67.57C87.5392 67.2151 87.748 66.9593 87.9875 66.8024C88.2232 66.6531 88.4767 66.575 88.7485 66.5673C89.0272 66.5636 89.3061 66.604 89.585 66.6889C89.8673 66.7848 90.141 66.8978 90.4057 67.0289L92.6586 68.145L92.3162 68.827L90.0526 67.7057C89.7665 67.5639 89.4874 67.4616 89.2159 67.3976C88.9441 67.3342 88.694 67.352 88.4653 67.4517C88.2329 67.5588 88.033 67.7792 87.8656 68.1127C87.7051 68.4325 87.6516 68.7167 87.7056 68.9651C87.763 69.2244 87.8884 69.4549 88.0817 69.657C88.2749 69.8592 88.4965 70.0315 88.747 70.173L91.0643 71.3209L90.7112 72.0243L86.3448 69.8612L86.6391 69.2751L87.6742 69.6415L87.6849 69.6202C87.5809 69.5248 87.4718 69.3775 87.3574 69.1785C87.2427 68.9799 87.1746 68.7419 87.1529 68.465C87.1274 68.1955 87.1968 67.8972 87.361 67.57Z" fill="white"/>
<path d="M84.3612 72.7135C84.6209 72.3323 84.9154 72.0702 85.2446 71.927C85.5757 71.7951 85.893 71.7403 86.1967 71.7619C86.4958 71.7905 86.7313 71.8626 86.9034 71.9783L86.4867 72.5897C86.4801 72.5853 86.4281 72.5554 86.3311 72.4995C86.2294 72.4505 86.099 72.4152 85.9395 72.3943C85.7801 72.3734 85.6046 72.4042 85.4135 72.4864C85.2287 72.5735 85.0425 72.7546 84.8543 73.0308C84.6527 73.3266 84.533 73.6157 84.4957 73.897C84.4537 74.1851 84.5473 74.4019 84.777 74.5463C84.969 74.6754 85.1592 74.7077 85.3482 74.6428C85.5391 74.5893 85.7305 74.4785 85.9225 74.31C86.1209 74.1464 86.3226 73.9707 86.5281 73.7824C86.7333 73.5947 86.945 73.4257 87.1635 73.2749C87.3839 73.1355 87.6126 73.0549 87.8502 73.032C88.0874 73.0096 88.3419 73.0894 88.6132 73.2719C88.9441 73.4944 89.1048 73.8182 89.0951 74.2431C89.092 74.6725 88.9336 75.1175 88.62 75.5775C88.4453 75.8339 88.2252 76.0649 87.9601 76.2698C87.7012 76.4797 87.4111 76.601 87.0897 76.6336C86.7745 76.6712 86.4395 76.561 86.0845 76.3029L86.4878 75.7112C86.7302 75.8936 86.9568 75.9647 87.1679 75.924C87.3786 75.8839 87.5645 75.7881 87.7252 75.6373C87.8878 75.4978 88.0185 75.3556 88.1173 75.2106C88.3098 74.9281 88.4158 74.6592 88.4356 74.4036C88.4507 74.1549 88.3622 73.966 88.1703 73.8369C87.985 73.7123 87.8 73.6792 87.6157 73.7372C87.4333 73.8066 87.2453 73.9196 87.0514 74.0768C86.8593 74.2453 86.6609 74.4232 86.4557 74.611C86.2525 74.8101 86.0384 74.9826 85.8136 75.1284C85.5885 75.2747 85.3541 75.3565 85.1103 75.3745C84.8617 75.3993 84.5986 75.318 84.3206 75.1311C83.9368 74.8729 83.7651 74.523 83.8061 74.0804C83.8534 73.6427 84.0386 73.1869 84.3612 72.7135Z" fill="white"/>
<path d="M78.3819 79.7151C78.6125 79.4954 78.8444 79.346 79.0781 79.2663C79.3113 79.1982 79.5296 79.1663 79.733 79.1705C79.9304 79.1805 80.0997 79.2062 80.2401 79.2485C80.3805 79.2907 80.4702 79.3208 80.5095 79.3383L80.5268 79.3218L79.8666 78.4658L80.3512 78.0042L85.0225 82.8437L84.4514 83.3877L82.3021 81.1782L82.2848 81.1947C82.3008 81.2344 82.3299 81.3222 82.3725 81.4576C82.4147 81.5934 82.4393 81.7625 82.4466 81.9645C82.4535 82.167 82.4152 82.3794 82.3314 82.6022C82.247 82.8366 82.0867 83.0663 81.8505 83.2913C81.51 83.6157 81.1528 83.8074 80.7784 83.867C80.398 83.9324 80.0176 83.8823 79.637 83.7169C79.2615 83.5575 78.908 83.3058 78.5761 82.9619C78.2442 82.6181 78.0058 82.2567 77.8614 81.8773C77.7164 81.4984 77.6849 81.1215 77.7665 80.7467C77.8422 80.3777 78.047 80.0341 78.3819 79.7151ZM78.9933 80.0732C78.7164 80.3369 78.5579 80.6089 78.5182 80.8887C78.478 81.1689 78.5148 81.4419 78.628 81.708C78.7464 81.9803 78.911 82.2249 79.1212 82.4427C79.337 82.6662 79.5791 82.837 79.8481 82.9548C80.1166 83.073 80.3959 83.1094 80.6852 83.0649C80.9799 83.0261 81.2627 82.8777 81.534 82.6193C81.874 82.2954 82.0319 81.9195 82.0072 81.4921C81.9875 81.0708 81.7873 80.6621 81.4056 80.2667C81.0184 79.8655 80.6046 79.6493 80.1645 79.6175C79.7239 79.5972 79.3333 79.7492 78.9933 80.0732Z" fill="white"/>
<path d="M74.3792 83.0617C74.7412 82.7998 75.1017 82.6716 75.4613 82.6766C75.8256 82.688 76.1765 82.8024 76.514 83.0199C76.8451 83.242 77.1516 83.5457 77.4339 83.9307C77.8668 84.5212 78.0927 85.0993 78.112 85.6648C78.1293 86.2416 77.8732 86.7216 77.3436 87.1048C77.0723 87.3011 76.8108 87.4167 76.5594 87.4512C76.3061 87.497 76.0754 87.492 75.8666 87.4368C75.6516 87.3862 75.4736 87.3185 75.3324 87.234L75.3227 87.241L75.9297 88.0689L75.2901 88.5317L72.4175 84.6137L72.9505 84.2281L73.6049 84.9185L73.6243 84.9045C73.5884 84.734 73.5757 84.5418 73.5869 84.3275C73.6028 84.1195 73.6711 83.9032 73.7927 83.6777C73.9122 83.4635 74.1079 83.258 74.3792 83.0617ZM74.5393 83.7857C74.1386 84.0756 73.9477 84.4151 73.9662 84.8044C73.9784 85.1983 74.1466 85.6168 74.4713 86.0596C74.8195 86.5345 75.1789 86.8295 75.5499 86.9441C75.9141 87.0636 76.2903 86.9829 76.6779 86.7025C77.1043 86.394 77.3074 86.0309 77.2879 85.6128C77.2663 85.2061 77.1052 84.7972 76.804 84.3865C76.4888 83.9565 76.1365 83.6712 75.7466 83.5309C75.3615 83.3971 74.9594 83.4818 74.5393 83.7857Z" fill="white"/>
<path d="M70.3755 85.8041L71.0638 85.4411L74.2346 91.3735L73.5464 91.7365L71.4156 87.75L70.3243 91.346L69.4561 91.8039L70.3513 88.9586L67.1144 87.5243L67.9508 87.0831L70.5854 88.2284L70.9883 86.9506L70.3755 85.8041Z" fill="white"/>
<path d="M64.0245 88.634C64.5259 88.4462 64.9832 88.4022 65.3965 88.502C65.8058 88.6117 66.1561 88.8157 66.4485 89.1135C66.7364 89.4214 66.9534 89.7687 67.1 90.155C67.2607 90.5784 67.3254 90.9954 67.293 91.4063C67.2567 91.8272 67.117 92.2019 66.874 92.5305C66.6243 92.8616 66.2711 93.1126 65.8146 93.2836C65.2313 93.5021 64.6737 93.4945 64.1406 93.2614C63.611 93.0355 63.2115 92.6124 62.9415 91.9923C62.923 91.9653 62.9021 91.9222 62.8796 91.8628C62.8598 91.8108 62.8415 91.7625 62.8246 91.7179L66.3918 90.382C66.1916 89.8545 65.907 89.486 65.5368 89.2768C65.1626 89.0775 64.7394 89.0663 64.2683 89.2427C63.9172 89.3742 63.6515 89.5755 63.4724 89.8462C63.2859 90.1197 63.2205 90.4199 63.2761 90.747L62.5694 91.0117C62.4697 90.5229 62.545 90.0578 62.7957 89.616C63.0469 89.174 63.4563 88.8468 64.0245 88.634ZM66.5174 90.7804L63.713 91.8307C63.7722 91.9867 63.8875 92.1556 64.059 92.3374C64.2232 92.522 64.4356 92.6546 64.6967 92.735C64.9534 92.8255 65.2536 92.8064 65.5975 92.6777C65.9115 92.56 66.1442 92.3966 66.2953 92.1872C66.4465 91.9779 66.5354 91.7495 66.5607 91.5024C66.5867 91.2551 66.5722 91.0144 66.5174 90.7804Z" fill="white"/>
<path d="M58.2943 90.3271C58.7554 90.228 59.1649 90.2496 59.5228 90.392C59.8731 90.536 60.1658 90.7736 60.4017 91.1047C60.6311 91.4453 60.7959 91.8445 60.8957 92.3023C61.0495 93.0084 61.0005 93.6282 60.7487 94.1616C60.4969 94.695 60.0271 95.0356 59.3399 95.1834C59.0195 95.2522 58.7422 95.255 58.5077 95.1917C58.2672 95.1378 58.0644 95.0514 57.8993 94.9325C57.7342 94.8137 57.6073 94.6988 57.5176 94.5881C57.4279 94.4774 57.3714 94.4043 57.3472 94.3689L57.3237 94.3739L57.9662 97.3795L57.1929 97.5457L55.7654 90.9926L56.4215 90.8515L56.7669 91.8739L56.7903 91.8689C56.7977 91.8266 56.8227 91.736 56.866 91.5967C56.9092 91.4575 56.9859 91.3029 57.0961 91.133C57.1987 90.9647 57.3474 90.8028 57.5423 90.6471C57.7312 90.5009 57.9821 90.3942 58.2943 90.3271ZM58.2514 91.0308C57.7903 91.1299 57.4492 91.3658 57.228 91.7382C57.0002 92.1202 56.9458 92.5828 57.0642 93.1259C57.1808 93.6614 57.4094 94.055 57.7506 94.3065C58.0935 94.5659 58.4949 94.6461 58.956 94.547C59.3233 94.468 59.6053 94.3181 59.8024 94.097C60.0013 93.8836 60.1264 93.6333 60.1785 93.346C60.2306 93.0586 60.2234 92.7636 60.1575 92.461C60.0932 92.1661 59.9806 91.8938 59.82 91.644C59.6612 91.402 59.4534 91.2192 59.1977 91.0955C58.9419 90.9718 58.6263 90.9502 58.2514 91.0308Z" fill="white"/>
<path d="M50.759 91.4219C50.9585 91.4139 51.0965 91.46 51.1726 91.5602C51.2412 91.6687 51.2781 91.7944 51.2839 91.9372C51.29 92.0879 51.2635 92.2161 51.2036 92.3218C51.1359 92.4278 51.002 92.4848 50.8026 92.4929C50.6032 92.5009 50.4693 92.4546 50.401 92.354C50.3249 92.2538 50.2838 92.1283 50.2777 91.9776C50.2716 91.8269 50.3023 91.6985 50.37 91.5925C50.4299 91.4868 50.5596 91.4299 50.759 91.4219Z" fill="white"/>
</svg>
